# xmcd
#
# Track frame offsets:
# 150
# 19657
# 32728
# 46893
# 60737
# 75970
# 90911
# 109016
#
# Disc length: 1653 seconds
#
# Revision: 0
# Processed by: cddbd v1.5PL3 Copyright (c) Steve Scherf et al.
# Submitted via: Audion 3.0.2 (http://www.panic.com/audion/)
#
DISCID=4e067308
DTITLE=Cynix - dirty laundry
DYEAR=1900
DGENRE=
TTITLE0=audacity
TTITLE1=dirty laundry
TTITLE2=pandora
TTITLE3=backroom
TTITLE4=just my luck
TTITLE5=slip
TTITLE6=take my mind off
TTITLE7=dirty little secret
EXTD=
EXTT0=
EXTT1=
EXTT2=
EXTT3=
EXTT4=
EXTT5=
EXTT6=
EXTT7=
PLAYORDER=
